<svg width="702" height="137" viewBox="0 0 702 137" fill="none" xmlns="http://www.w3.org/2000/svg">
<path d="M277.561 0.0380539H77.9216H74.1593H0C0 0.0380539 14.0794 71.5855 49.9392 70.6731C66.9285 70.255 87.2099 58.3937 106.903 65.2367C131.476 73.8285 153.141 137 187.031 137C226.418 137 248.432 42.959 296.931 74.779C325.972 93.8253 339.228 38.3969 374.177 38.3969C402.923 38.3969 413.27 95.46 450.864 95.46C489.222 95.46 489.575 52.4251 524.171 52.4251C559.766 52.4251 557.551 137 585.562 137C611.487 137 611.057 53.1474 643.155 53.1474C689.155 53.1474 702 0 702 0H277.561V0.0380539Z" fill="#FFFFF9"/>
</svg>
