<svg width="16" height="16" viewBox="0 0 32 32" style="enable-background:new 0 0 32 32" xml:space="preserve" xmlns="http://www.w3.org/2000/svg"><style>.st0{stroke:#ab816c;stroke-width:2px;stroke-linecap:#ab816c;stroke-linejoin:#ab816c;stroke-miterlimit:#ab816c;fill:#ab816c;color:#ab816c}</style><path d="M16 1C7.73 1 1 7.73 1 16s6.73 15 15 15c6.94 0 12.79-4.74 14.5-11.14.12-.47.23-.95.31-1.44.12-.79.19-1.59.19-2.42 0-8.27-6.73-15-15-15zm9 13h1c.55 0 1 .45 1 1s-.45 1-1 1h-1c-.55 0-1-.45-1-1s.45-1 1-1zm-6-7h2c.55 0 1 .45 1 1s-.45 1-1 1h-2c-.55 0-1-.45-1-1s.45-1 1-1zm-3 5c2.21 0 4 1.79 4 4s-1.79 4-4 4a3.999 3.999 0 0 1-3.17-6.44C13.56 12.61 14.71 12 16 12zm-6-5h2c.55 0 1 .45 1 1s-.45 1-1 1h-2c-.55 0-1-.45-1-1s.45-1 1-1zm-5 6c0-.55.45-1 1-1h1c.55 0 1 .45 1 1s-.45 1-1 1H6c-.55 0-1-.45-1-1zm2 6h1c.55 0 1 .45 1 1s-.45 1-1 1H7c-.55 0-1-.45-1-1s.45-1 1-1zm9 10c-4 0-7.58-1.81-9.97-4.66 1.07.39 2.38.66 3.97.66 2.23 0 3.67.61 5.06 1.2 1.16.49 2.28.97 3.64.97.48 0 .99-.06 1.54-.2 2.16-.54 3.52-2.03 4.84-3.48.93-1.02 1.82-2.01 3-2.7C26.18 25.59 21.48 29 16 29z" id="Musik_icon" fill="#ab816c"/></svg>