<svg version="1.0" xmlns="http://www.w3.org/2000/svg" width="458.667" height="458.667" viewBox="0 0 344 344"><path d="M154.5 17.7c-3 .4-16.7 2.8-21.7 3.8-6.4 1.3-21.7 6.9-30.2 11-40.4 19.6-69.4 55.5-81 100-.8 3.3-1.8 7.6-2.1 9.5-.2 1.9-.8 6-1.3 9.1-1 6.5-.8 27.8.2 36.4 5 39.6 27.1 77.8 59.1 102.2 3.3 2.5 5.9 4.9 5.8 5.4-.2.5.4.6 1.2.3 1-.4 1.5 0 1.5 1.2 0 1.6.2 1.7 1 .4.9-1.3 1.4-.7 1.1 1.3 0 .4.2.6.6.6 1.9-.3 3.4.2 2.9.9-.3.5.1.9.9.9.7 0 4.8 1.6 9 3.7 5.6 2.7 7.5 4.1 7.1 5.2-.4 1-.2 1.2.6.8.6-.4 1.7.1 2.5 1.1.7 1.1 1.3 1.5 1.3 1s-.8-1.7-1.7-2.8c-1.8-2-1.8-2 1.2-.4 3.8 1.9 6.8 3.1 7.8 2.8.4 0 1 .6 1.3 1.4.4.8 1 1.5 1.6 1.5.5 0 .6-.5.3-1-.3-.6-.1-1 .4-1 .6 0 1.1.5 1.1 1 0 .6.6.9 1.3.8.7-.2 1.1.7 1 2.2-.2 2.5-.2 2.5.9.3.9-1.8 1.7-2.2 3.7-1.7 1.4.3 3.2.6 3.9.6.6.1 1.2.4 1.2.8 0 .3.8.6 1.8.7.9.1 3.5.4 5.7.8 2.2.3 5.2.6 6.8.5 1.5 0 2.7.4 2.7 1 0 .5.5 1 1.1 1 .5 0 .8-.4.5-.8-.3-.5.2-.9 1-.9s1.3.6 1 1.4c-.5 1.3 3.1 3.9 4.2 2.9.3-.3 0-.6-.7-.6s-.9-.4-.6-1c.4-.6-.1-.7-1.2-.3-1.6.6-1.6.5-.4-1 1.7-2.1 2.9-1.4 4.7 2.7.7 1.7 1.3 2.5 1.4 1.8 0-.7-.5-2.2-1-3.3-.7-1.1-.7-1.9-.1-1.9.5 0 1.1.5 1.3 1.2.5 1.4 4.5 2.1 5.2.9.3-.4-.6-.7-1.9-.5-1.4.1-2.5-.2-2.5-.6 0-1.3 1.8-2.2 2.4-1.2.3.5 2 .7 3.8.6 10.6-1.1 10.6-1.1 11.2.9.3 1.2.9 1.6 1.7 1.1.9-.5 1-.2.6.9-.3.8 0 1.8.8 2.1 1.1.4 1.2 0 .5-1.7-.4-1.2-1.3-2.1-1.9-1.9-.6.1-1.1-.4-1.1-1.2 0-.9 1.9-1.5 5.8-1.9 3.1-.4 6.8-1 8.2-1.3 2-.4 2.2-.3 1 .5-.9.7-1.1 1.1-.3 1.1.7 0 1.7-.8 2.2-1.8.9-1.4 1.2-1.4 2-.3.6.9 1 1 1.2.2.5-1.4 10.2-4.4 14.1-4.4 1.5 0 2.6-.4 2.5-1-.1-.5.4-1.2 1.1-1.4.6-.3 1.2 0 1.2.6s.5 1.1 1.1 1.1c.5 0 .8-.4.4-1-.4-.7 6.5-5 8.1-5 .2 0 .4 1 .6 2.2.2 1.3.9 2.2 1.7 2 .9-.2 1.2.4.8 1.9-.4 1.6-.3 1.9.5 1.1 1.3-1.3.2-4.6-1.2-3.7-.6.3-1-.4-1-1.8 0-1.9 1-2.9 5-4.8 2.8-1.3 5-2.8 5-3.4 0-.5.5-.3 1 .5.8 1.3 1.1 1.3 2.2.1 1-1 1-1.2 0-.7-.6.4-1.2.2-1.2-.3 0-.6.5-1.1 1-1.1.6 0 1.3-.1 1.7-.3.3-.1.8.8 1 2.1.2 1.4-.1 2.1-.7 1.7-.5-.3-1.5.4-2.1 1.7-.6 1.3-1.9 2.5-3 2.5-1.2.1-1.7-.3-1.3-.9.4-.7.2-.8-.5-.4-1.7 1.1-.3 2.6 2.1 2.3 1.1-.2 2.6-1.4 3.3-2.8.8-1.3 1.7-2.4 2.2-2.4.4 0 .8-1.3.8-2.8 0-2.9 2-4.8 4.1-4 .6.2 1.5-.1 2-.8.4-.8.3-1-.4-.5-.7.4-1.2.2-1.2-.3 0-.6.5-1.1 1-1.1.6 0 1.6-.5 2.3-1 5-4.2 6.2-5 7.3-4.6.7.3 1.1 0 .8-.7-.2-.7 1.7-3 4.2-5.2 2.6-2.2 5.2-4.6 5.8-5.3 4.7-5.5 7.8-8.2 8.6-7.7 1.4.9 1.2 2.5-.2 2.3-.7-.2-1.3.3-1.3 1.1s.6 1.5 1.3 1.7c.7.1.8 0 .2-.3-.5-.2-1-.9-1-1.4 0-.6.4-.8.9-.4 1.5.9 2.4-1.5 1.1-3-.8-1-.8-1.9 0-3.4 1.3-2.5 2.6-2.7 3.4-.6.3.8 1 1.5 1.6 1.5.6 0 .4-.7-.4-1.6-2-2-2-2.2.2-4.2 1-1 1.1-1.3.3-.7-.8.5-.4-.5.9-2.2 1.3-1.8 3.1-3.3 3.9-3.3 1.4 0 1.4-.1.1-1-1.4-.9-1.3-1.1.9-1.4.5 0 1.3-.5 1.8-1s.3-.6-.4-.2c-.7.4-1.3.2-1.3-.3 0-.6.5-1.1 1.1-1.1.5 0 .8-.4.4-.9-.3-.6.4-.9 1.5-.8 2.1.1 2.7 1.2 1 2-.6.3-.5.4.2.3.7-.2 1.3-.9 1.3-1.7 0-.8-.6-1.3-1.3-1.1-1.7.3-1.6 0 2.7-9.1 5.7-12.2 7.1-15.4 7.1-16.5 0-.5.7-1.3 1.5-1.6 2-.7 1.6 2.4-.5 4.1-.8.7-1 1.3-.5 1.3.6 0 .3.5-.5 1.1-1 .7-1.1.9-.2.7.8-.2 1.3-.7 1.2-1.2-.1-.5.5-1.3 1.3-1.7 1.7-1 1.6-5.5-.1-5.1-1.5.3-1.5.2.3-4.1.8-1.9 1.1-3.7.8-4.1-.4-.3-.1-.6.6-.6.8 0 1-.7.6-2-.3-1.1-.2-2 .3-2 .6 0 .8-.9.5-2-.4-1.5 0-2 1.3-2.1 1.1 0 1.4-.3.7-.6-1.4-.5-1.8-3.3-.5-3.3.4 0 .7-1.7.6-3.7-.2-3.4.8-5.2 2.9-5.3.4 0 .6.6.5 1.2-.2.7.8 1.4 2.2 1.5 2.4.2 2.4.2.2-.5-1.3-.4-2.4-1.2-2.5-1.7-.1-.6-.8-.9-1.4-.9-2.2.3-1.4-2.3.8-2.9 1.2-.3 1.8-1 1.4-1.6-.3-.6-.1-1.1.5-1.1s1.5 1 2 2.2c.5 1.4.9 1.7.9.7.1-.8-.4-2-1.1-2.7-.9-.9-.9-1.2.2-1.2.7 0 1.1-.3.8-.6-1-.9-4.9 1.6-4.3 2.7.4.5 0 .9-.7.9-.8 0-1.4-.9-1.4-1.9 0-1.1.4-1.7.8-1.5.4.3.8.1.8-.5 0-.5-.5-1.3-1-1.6-.6-.4-.8-1.1-.5-1.6.9-1.3 2.5-1.1 2.3.3-.3 1.4 4 2 4.7.7.3-.4-.6-.6-2.1-.3s-2.3.1-2-.5c.4-.5-.2-1.4-1.1-2-1.7-.9-1.7-1.1.2-2.5 1.1-.8 1.6-1.6 1-1.7-.5 0 .1-.5 1.5-1l2.5-.8-2.5.2c-1.4.1-2.4.8-2.2 1.5.1.6-.3 1.2-.9 1.2-.7 0-.9-1-.5-2.4.3-1.4.1-2.8-.4-3.1-.6-.4-.8-1.1-.5-1.6.9-1.3 2.5-1.1 2.3.3-.2.7.8 1.4 2.2 1.5l2.5.2-2.5-.8c-1.4-.5-2-1-1.5-1 .6-.1.1-.9-1-1.7-1.9-1.4-1.9-1.6-.2-2.5.9-.6 1.4-1.5 1.1-2.1-.5-.8-.1-.9 1.2-.4 1.4.5 1.6.4.7-.5-1.3-1.3-3.7-.3-2.8 1.2.4.5.2.9-.3.9-.6 0-1.2-.7-1.6-1.5-.3-.8-.1-1.5.4-1.5.6 0 1-.5 1-1.1 0-.5-.4-.8-.8-.5-.4.2-.9-.4-.9-1.5-.1-1.1.5-1.9 1.3-1.9s1.3.4 1 .9c-.3.5.7 1.7 2.2 2.7 2 1.3 2.4 1.3 1.5.2-.7-.8-1-1.8-.6-2.2.4-.4-.1-.4-1.1 0-1.4.5-1.7.4-1.2-.4.4-.8-.3-1.6-2.1-2.3-2.8-1.2-2.8-1.2-.5-1.8 1.3-.3 2.3-1 2.2-1.5-.1-.5.4-1.3 1.2-1.8 1-.8 1-.9-.2-.5-.8.2-1.4 1-1.2 1.6.1.6-.8 1.1-2 1-1.3 0-1.7-.3-1-.6.8-.3 1-.9.3-1.6-.8-1.1-1.7-4.8-2.5-10.7-.2-1.4-.9-3.7-1.5-5.2-1-2.8-.5-6.2.8-5.3.4.2.8-.2.8-1 0-2-1.3-1.9-2.2.2-.6 1.5-.9 1.3-1.6-1.2-.6-2-.5-3.2.4-3.7s.7-.8-.4-.8c-1 0-2.1-1.6-2.9-4.3-.8-2.3-2.7-6.7-4.2-9.7-1.6-3-2.6-6.1-2.3-6.8.3-.7.1-1.1-.4-.7-1.2.7-4.3-5.4-3.4-6.8.3-.6.1-.7-.5-.3-1.3.8-3.5-2.8-2.4-3.9.4-.5.1-.5-.5-.1-.7.4-1.3.2-1.3-.3 0-1.2 0-1.2-8.6-11.6-25.2-30.5-58.8-49.3-98-55-4.8-.7-29.7-1.3-33.9-.8z"/><path d="M308 106.4c0 .2.8 1 1.8 1.7 1.5 1.3 1.6 1.2.3-.4s-2.1-2.1-2.1-1.3zM310 110.5c0 .5.9 2.3 2 4 2.6 3.9 2.6 2.5 0-1.7-1.1-1.8-2-2.9-2-2.3zM314 120c-.9.6-1 1-.3 1 .6 0 1.5-.5 1.8-1 .8-1.2.4-1.2-1.5 0zM317 126.9c0 .7-.5.9-1.2.5-.7-.5-.8-.3-.3.5.5.9 1 1 1.8.2.6-.6.8-1.4.4-1.8-.4-.3-.7-.1-.7.6zM317.4 130.1c-.3.6-.1 1.6.5 2.2.9.9 1 .7.5-.7-.6-1.5-.4-1.7.6-1.1.9.5 1.1.4.6-.3-.9-1.5-1.3-1.5-2.2-.1zM318.8 134.7c.7.3 1.6.2 1.9-.1.4-.3-.2-.6-1.3-.5-1.1 0-1.4.3-.6.6zM319.7 137.7c-1.3 1.2-.7 2.3 1.1 2.2 1 0 1.2-.3.4-.6-.6-.2-1-.9-.6-1.4.6-1 0-1.2-.9-.2zM319 141.5c0 .5.5 1.7 1 2.5s1 1 1 .5c0-.6-.5-1.7-1-2.5s-1-1.1-1-.5zM321.5 142c.3.5.8 1 1.1 1 .2 0 .4-.5.4-1 0-.6-.5-1-1.1-1-.5 0-.7.4-.4 1zM323.5 161.1c-.4.6-.5 1.2-.2 1.5.2.3.7-.2 1-1.1.7-1.7.1-2-.8-.4zM325.1 163.6c0 1.1.3 1.4.6.6.3-.7.2-1.6-.1-1.9-.3-.4-.6.2-.5 1.3zM324 172.5c-1.9 2.2-.8 2.5 1.3.3.9-1 1.3-1.8.8-1.8s-1.4.7-2.1 1.5zM323 185.7c0 .6.8 1.7 1.8 2.4 1.6 1.3 1.6 1.3.2-.6-.8-1.1-1.6-2.2-1.7-2.4-.2-.2-.3 0-.3.6zM319.3 192.8c-.1 2.2 0 2.4.9.8.6-1 .6-2.2.2-2.6-.5-.5-1 .3-1.1 1.8zM322.4 193.5c-1 .8-1.4 1.5-.9 1.5.6 0 .3.5-.5 1.1-1 .7-1.1.9-.2.7.8-.2 1.3-.7 1.2-1.2-.1-.4.7-1.4 1.7-2.2 1-.7 1.5-1.4 1.2-1.4-.3 0-1.4.7-2.5 1.5zM323 198.1c0 .5.5.7 1 .4.6-.3 1-.8 1-1.1 0-.2-.4-.4-1-.4-.5 0-1 .5-1 1.1zM320 199.5c1.4.7 2.4 1.7 2.2 2.1-.2.5.2 1 1 1.2.9.2.8 0-.2-.7-.8-.6-1-1.1-.5-1.1.6 0 .1-.7-.9-1.5-1.1-.8-2.5-1.5-3-1.5-.6.1 0 .7 1.4 1.5zM319 203c0 .5.5 1 1.1 1 .5 0 .7-.5.4-1-.3-.6-.8-1-1.1-1-.2 0-.4.4-.4 1zM321.8 204.6c-.4.3-1.4.7-2.5.8-2.5.4-2.6 4.4-.1 5.7 1.1.6 2.2.8 2.6.5.3-.3 0-.6-.7-.6s-.9-.4-.6-1c.3-.5 0-.7-.7-.5-.8.3-1.4-.2-1.5-1.3-.1-1.1.6-1.8 1.8-1.9 1.1-.1 1.7.2 1.4.7-.3.5-.2 1.1.3 1.4.4.2.8-.6.8-2 0-2.6 0-2.7-.8-1.8zM315.6 211.8c-.3.4.4.9 1.5.9 2.3.2 2.5-.3.4-1-.8-.4-1.6-.3-1.9.1zM315.6 215.5c-.3.8-.1 1.5.4 1.5.6 0 1-.7 1-1.5s-.2-1.5-.4-1.5-.6.7-1 1.5zM319 215c0 .5.5 1 1.1 1 .5 0 .7-.5.4-1-.3-.6-.8-1-1.1-1-.2 0-.4.4-.4 1zM317 219.1c-.7 1.1-.9 2.3-.6 2.7.3.3.6 0 .6-.7s.4-.9 1-.6c.6.4.7-.1.3-1.1-.5-1.3-.3-1.5.7-.9.9.5 1.1.4.6-.3-1-1.6-1.4-1.5-2.6.9zM315.6 224.1c.2.4-.3 1-1.2 1.3-.8.3-1.3.9-1 1.4.2.4-.5 1.4-1.6 2.1-1.8 1.1-2 1.1-1.5-.3.4-.9.2-1.6-.3-1.6-1.1 0-1.4 2.3-.4 3.3.9.8 5.5-2.3 4.9-3.3-.3-.4.2-1 .9-1.3.8-.3 1.7-.3 1.9.1.2.4.2.2.1-.5-.2-.6.2-1.4.9-1.6.7-.3.2-.4-1-.4-1.2.1-2 .4-1.7.8zM307.5 232c-.8 1.3.4 3.2 1.6 2.5.5-.4.9.3.9 1.4 0 1.2-.6 2-1.2 1.8-.8-.1-1.2.7-1.1 2.1.2 1.4-.1 2.1-.8 1.7-.6-.4-1.3.3-1.6 1.5-.6 2.2-.7 2.2-2 .5-.7-1.1-1.3-1.5-1.3-.9 0 .5.7 1.7 1.5 2.8 1.3 1.8 1.4 1.7 2.1-.7.3-1.5 1.1-2.5 1.8-2.4.6.1 1-.8.9-2-.2-1.4.2-2.2 1-2 .7.1 1.2-.8 1.2-2.3 0-1.6-.5-2.4-1.4-2.2-.8.2-1.1-.3-.8-1.3.7-1.7.2-2-.8-.5zM311.6 231.8c-.2.4 0 1.4.6 2.2.8 1.2.9 1.1.4-.4-.5-1.4-.2-1.7.9-1.2.9.3 1.3.2 1-.4-.7-1.2-2.2-1.3-2.9-.2z"/><path d="M305.5 236c-.3.5-.1 1 .4 1 .6 0 1.1-.5 1.1-1 0-.6-.2-1-.4-1-.3 0-.8.4-1.1 1zM303.6 239.5c-.3.8-.1 1.5.4 1.5.6 0 1-.7 1-1.5s-.2-1.5-.4-1.5-.6.7-1 1.5zM310.6 240.7c-.6 1.4-.5 1.5.5.6.7-.7 1-1.5.7-1.8-.3-.3-.9.2-1.2 1.2zM307.9 244.7c-1.3 1.6-1.2 1.7.4.4 1.6-1.3 2.1-2.1 1.3-2.1-.2 0-1 .8-1.7 1.7zM305.5 248.1c-.4.6-.4 1.3-.1 1.6.3.4.6.1.6-.6s.5-.9 1-.6c.6.3 1 .1 1-.4 0-1.4-1.7-1.4-2.5 0zM303.3 250.8c0 1.2.5 2.2.9 2.2 1.1 0 1-1.2-.2-3-.7-1.2-.9-1-.7.8zM299.8 251.7c.7.3 1.6.2 1.9-.1.4-.3-.2-.6-1.3-.5-1.1 0-1.4.3-.6.6zM297.6 253.8c-.2.4.4 1.8 1.5 3.1 1 1.3 1.9 2 1.9 1.5 0-.4-.8-1.6-1.7-2.7-1.7-1.8-1.7-1.9.2-1.6 1.1.2 2.3 1.1 2.7 1.9.6 1.1.7 1 .5-.4-.2-1.9-4.1-3.3-5.1-1.8zM295 257c.6 1.1 1.6 1.7 2.2 1.4.8-.5.9-.1.5 1-.4 1-.3 1.5.3 1.1.6-.3 1-.1 1 .6s.3 1 .6.7c.9-1-1.6-4.9-2.7-4.3-.5.4-.9-.1-.9-.9 0-.9-.5-1.6-1-1.6-.7 0-.7.7 0 2zM293 259.4c0 .2.7.7 1.6 1 .8.3 1.2.2.9-.4-.6-1-2.5-1.4-2.5-.6zM291 262c0 .5.7.6 1.7.3 1.2-.5 1.4-.3.8.7-.5.9-.4 1.1.4.6.6-.4.9-1.2.6-1.7-.8-1.2-3.5-1.2-3.5.1zM295 265.1c0 .5-.5.7-1.2.3-.7-.4-.8-.3-.4.4.4.6 1.3.9 2.1.6.8-.4 1.2-1 .9-1.5-.7-1.2-1.4-1.1-1.4.2zM287 266c0 .5.5 1 1 1 .6 0 1-.5 1-1 0-.6-.4-1-1-1-.5 0-1 .4-1 1zM290 267.4c0 .2.9.6 2 .9 1.1.3 1.8.1 1.4-.4-.5-.9-3.4-1.3-3.4-.5zM289.4 270.5c-.4.8-.9 1.3-1.3 1.1-.4-.3-.8.5-.8 1.7-.2 2-.1 1.9 1.5-.4.9-1.4 2.3-2.4 3-2.2 1.8.7 1.5-.4-.3-1.1-.9-.3-1.8.1-2.1.9zM281.4 272.4c.5 1.3.2 1.7-.9 1.3-.8-.4-1.6-.3-1.9.1-.3.4.4.8 1.4.9 2.5.2 3.2-.9 1.8-2.7-.8-1.2-.9-1.1-.4.4zM282 276c-1.8 1.2-.2 1.2 2.5 0 1.3-.6 1.5-.9.5-.9-.8 0-2.2.4-3 .9zM276 277c-.9.6-1 1-.3 1 .6 0 1.5-.5 1.8-1 .8-1.2.4-1.2-1.5 0zM279 276.5c0 .5.5 1.7 1 2.5s1 1 1 .5c0-.6-.5-1.7-1-2.5s-1-1.1-1-.5zM273 279.4c0 .2.7.7 1.6 1 .8.3 1.2.2.9-.4-.6-1-2.5-1.4-2.5-.6zM277 280c0 .5.5 1 1 1 .6 0 1-.5 1-1 0-.6-.4-1-1-1-.5 0-1 .4-1 1zM272 281.8c.8.4 1.6 1.5 1.8 2.6.2 1.1-.1 1.5-.7 1.1-.6-.3-1.6.4-2.2 1.7-.6 1.3-1.9 2.5-3 2.5-1.2.1-1.7-.3-1.3-.9.4-.7.2-.8-.5-.4-.6.4-.9 1.2-.6 1.7.8 1.2 4.8.5 5.3-1 .3-.9.8-.9 2 .1 1.4 1 1.5 1 .5-.2-.7-.8-1.3-1.8-1.3-2.2 0-.4.6-.7 1.3-.6.7.2 1.2-.7 1.2-2.2 0-1.7-.6-2.6-2-2.7-1.5-.2-1.6-.1-.5.5zM278.7 283.4c-.4 1-.1 1.3.8.9.8-.3 1.2-.9.9-1.4-.7-1.2-1.1-1.1-1.7.5z"/><path d="M269 284c0 .5.5 1 1 1 .6 0 1-.5 1-1 0-.6-.4-1-1-1-.5 0-1 .4-1 1zM275.6 286.5c-.9 2.6-.7 3.2.5 1.2.6-1 .9-2.1.6-2.3-.2-.3-.7.2-1.1 1.1zM261.3 291.8c.1 2.3 3.7 5.4 3.7 3.2 0-.5-.7-1-1.6-1-.8 0-1.3-.4-1-.8.2-.4.1-1.4-.4-2.2-.7-1.1-.9-.9-.7.8zM264.2 291.6c1 1 2 1.6 2.2 1.3.3-.3-.5-1.1-1.7-1.8-2.1-1.3-2.1-1.2-.5.5zM259.1 292.6c0 1.1.3 1.4.6.6.3-.7.2-1.6-.1-1.9-.3-.4-.6.2-.5 1.3zM257 296c0 .5.5 1 1 1 .6 0 1-.5 1-1 0-.6-.4-1-1-1-.5 0-1 .4-1 1zM261.5 298c-.3.6.1.7.9.4 1.8-.7 2.1-1.4.7-1.4-.6 0-1.3.4-1.6 1zM252.1 299.6c0 1.1.3 1.4.6.6.3-.7.2-1.6-.1-1.9-.3-.4-.6.2-.5 1.3zM255 299c0 .5.5 1 1 1 .6 0 1-.5 1-1 0-.6-.4-1-1-1-.5 0-1 .4-1 1zM259.1 299.6c0 1.1.3 1.4.6.6.3-.7.2-1.6-.1-1.9-.3-.4-.6.2-.5 1.3zM253.3 302.8c-.3.7-.3 1.6.1 1.9.3.4.6-.1.6-1 0-1 .6-1.4 1.4-1.1.8.3 1.6.2 1.9-.3.3-.5-.4-.9-1.5-.9s-2.3.6-2.5 1.4zM239 304.5c0 .8.2 1.5.4 1.5s.6-.7 1-1.5c.3-.8.1-1.5-.4-1.5-.6 0-1 .7-1 1.5zM98.8 305.7c.7.3 1.6.2 1.9-.1.4-.3-.2-.6-1.3-.5-1.1 0-1.4.3-.6.6zM237 308c0 .5.5 1 1 1 .6 0 1-.5 1-1 0-.6-.4-1-1-1-.5 0-1 .4-1 1zM240 307.4c0 1.3 3.7 2.4 5.1 1.5 1.2-.9 1.2-1-.1-.6-.8.2-2.3 0-3.2-.5-1-.5-1.8-.6-1.8-.4zM227.6 310.1c.3.5.9.7 1.4.4.4-.3 1.1 0 1.3.5.3.6.4.5.3-.1-.1-.7-1-1.3-1.9-1.5-.9-.1-1.5.2-1.1.7zM239 311.1c0 .5.5.7 1 .4.6-.3 1-.8 1-1.1 0-.2-.4-.4-1-.4-.5 0-1 .5-1 1.1zM226.7 312.1c.7.7 1.5 1 1.8.7.3-.3-.2-.9-1.2-1.2-1.4-.6-1.5-.5-.6.5zM232 312c0 .5.5 1 1.1 1 .5 0 .7-.5.4-1-.3-.6-.8-1-1.1-1-.2 0-.4.4-.4 1zM114 313.4c0 .2 1.1.6 2.5.8 1.3.3 2.2.1 1.9-.3-.5-.9-4.4-1.3-4.4-.5zM216.4 314.1c-.4.7-.3.9.4.5s1 .1.9 1.4c-.1 2.1-1.2 2.7-2 1-.3-.6-.4-.5-.3.2.4 2.2 2.9 1.5 3.2-.9.4-2.5-1.1-3.9-2.2-2.2zM220.9 315.3c-.8 1.4-.8 2.2.1 3.1.8.8.9.6.4-.8-.5-1.3-.4-1.7.4-1.2.7.4 1 .2.7-.6-.4-.9.2-1.4 1.5-1.4s1.9.5 1.6 1.3c-.3.7-.1 1.3.5 1.3s.9-.8.7-1.7c-.4-2.4-4.7-2.4-5.9 0zM229.3 314.5c-.3.9-.3 1.9.1 2.2.3.4.6-.1.6-1.1s.5-1.4 1.2-1c.7.4.8.3.4-.4-1-1.6-1.5-1.5-2.3.3zM211.6 316.5c.4.8.8 1.5 1 1.5.2 0 .4-.7.4-1.5s-.4-1.5-1-1.5c-.5 0-.7.7-.4 1.5zM205.7 316.6c-1 1.1.3 2.4 2.3 2.4 2.3 0 3.5-1.6 1.9-2.6-.8-.4-.9-.3-.5.4.5.8-.1 1.2-1.4 1.2-1.2 0-1.8-.5-1.5-1 .7-1.1.2-1.3-.8-.4zM129.5 317.9c-.6 1.1 1.3 2.6 2.2 1.7.4-.3.1-.6-.6-.6s-.9-.5-.6-1c.3-.6.4-1 .1-1-.3 0-.7.4-1.1.9zM133.5 318c-.3.5-.1 1 .4 1 .6 0 1.1-.5 1.1-1 0-.6-.2-1-.4-1-.3 0-.8.4-1.1 1zM139.3 319.3c0 .9.4 1.4.8 1.1.4-.2.9.1 1.1.8.2.6 1.2 1.2 2.1 1.4.9.1 1.4-.2 1.1-.8-.3-.5-.8-.7-1.1-.4-.3.3-1.3-.4-2.3-1.6-1.3-1.7-1.7-1.8-1.7-.5zM144.7 320.1c.7.7 1.5 1 1.8.7.3-.3-.2-.9-1.2-1.2-1.4-.6-1.5-.5-.6.5zM192 320.5c-1.1 1.3-1.5 1.3-2.1.3-.6-.9-.9-.9-.9-.1 0 2.1 1.4 2.2 3.9.2 1.3-1 1.9-1.9 1.3-1.9-.5 0-1.5.7-2.2 1.5zM201.1 319.5c.4.3 1.9.8 3.5 1.1 1.6.3 2.6.2 2.3-.1-.4-.3-1.9-.8-3.5-1.1-1.6-.3-2.6-.2-2.3.1zM211.5 319.9c.3.2-.3 1-1.3 1.8-1.5 1.2-1.4 1.3.8.1 1.4-.7 2.8-1.1 3.3-1 .4.1.7-.2.7-.7 0-.6-.9-.9-2-.8-1 .1-1.7.3-1.5.6zM150 321.1c0 .5-.4.8-.8.5-.4-.2-1.4 0-2.2.5-1.1.7-.9.8.9.6 2.1-.3 4.5-2.7 2.7-2.7-.3 0-.6.5-.6 1.1zM175.5 321.1c-.4.6-.5 1.2-.2 1.5.2.3.7-.2 1-1.1.7-1.7.1-2-.8-.4zM180 320.9c0 .7-.5.9-1 .6-1.3-.8-2.4 2-1.6 4.1.5 1.3.9 1.3 3-.3 1.3-1 2.2-2 2-2.2-.2-.2-1.3.4-2.4 1.4-1.9 1.8-2 1.7-2-.4 0-1.2.4-2 .9-1.6 1.1.6 2.6-1.3 1.7-2.2-.3-.4-.6-.1-.6.6zM200.2 321.3c1 .8 1.4 1.8 1 2.2-.4.5-.1.5.6.1 1.7-1 1.5-1.4-1-2.6-2.1-1-2.1-1-.6.3zM151.1 323.3c-1.3 2.1-1.2 2.1.5.5 1-1 1.6-2 1.3-2.2-.3-.3-1.1.5-1.8 1.7zM193.6 321.8c-.2.4 0 1.4.6 2.2.8 1.2.9 1.2.4-.3-.4-1.2 0-1.7 1.6-1.7 1.8 0 1.9.2.7 1.7-1.2 1.6-1.2 1.7.2.6.9-.7 2-.9 2.5-.5.4.4.2-.1-.5-1.1-1.4-1.8-4.6-2.3-5.5-.9zM153.7 323.7c-.3.5.8.8 2.5.9 2 .1 2.5-.2 1.6-.7-1.6-1.1-3.5-1.1-4.1-.2zM170 324c-1.8 1.2-.2 1.2 2.5 0 1.3-.6 1.5-.9.5-.9-.8 0-2.2.4-3 .9zM191 325.1c0 .5.5.7 1 .4.6-.3 1-.8 1-1.1 0-.2-.4-.4-1-.4-.5 0-1 .5-1 1.1z"/></svg>