<svg width="1279" height="2073" viewBox="0 0 1279 2073" fill="none" xmlns="http://www.w3.org/2000/svg">
<path d="M61.961 492.039C75.5624 591.73 24.1794 583.667 -3.21224 567.174V1791.33C-3.21223 2030.56 -16.2347 1926.89 -3.21223 1994.27C4.69119 2035.17 47.7929 1837.15 36.4584 1791.33C25.1239 1745.52 27.9576 1659.39 77.546 1641.06C127.134 1622.73 134.218 1580.59 159.721 1527.44C185.223 1474.3 250.397 1369.84 409.079 1450.47C567.762 1531.11 672.606 1457.8 747.697 1384.5C896.462 1239.28 1148.78 1385.21 1218.9 1509.62C1255.69 1574.9 1155.31 1908.72 1218.9 1939.85C1250.66 1955.4 1279 2241.23 1279 1924.3V471.88C1278.06 485.319 1271.07 508.165 1250.66 492.039C1190.59 452.455 1215.24 331.383 1235.08 275.795C1245.94 222.65 1249.53 98.0355 1176.99 24.7327C1091.68 -61.4767 840.631 105.366 694.993 105.366C535.878 105.366 458.668 57.7192 363.741 13.7375C268.815 -30.2442 193.724 44.8911 163.971 105.366C134.218 165.841 132.802 189.664 87.4636 217.153C-1.79537 259.302 44.9593 367.424 61.961 492.039Z" fill="#FEF3E4"/>
</svg>
