<?xml version="1.0" standalone="no"?>
<!DOCTYPE svg PUBLIC "-//W3C//DTD SVG 20010904//EN"
 "http://www.w3.org/TR/2001/REC-SVG-20010904/DTD/svg10.dtd">
<svg version="1.0" xmlns="http://www.w3.org/2000/svg"
 width="344.000000pt" height="344.000000pt" viewBox="0 0 344.000000 344.000000"
 preserveAspectRatio="xMidYMid meet">
<metadata>
Created by potrace 1.14, written by Peter Selinger 2001-2017
</metadata>
<g transform="translate(0.000000,344.000000) scale(0.100000,-0.100000)"
fill="#000000" stroke="none">
<path d="M1545 3263 c-30 -4 -167 -28 -217 -38 -64 -13 -217 -69 -302 -110
-404 -196 -694 -555 -810 -1000 -8 -33 -18 -76 -21 -95 -2 -19 -8 -60 -13 -91
-10 -65 -8 -278 2 -364 50 -396 271 -778 591 -1022 33 -25 59 -49 58 -54 -2
-5 4 -6 12 -3 10 4 15 0 15 -12 0 -16 2 -17 10 -4 9 13 14 7 11 -13 0 -4 2 -6
6 -6 19 3 34 -2 29 -9 -3 -5 1 -9 9 -9 7 0 48 -16 90 -37 56 -27 75 -41 71
-52 -4 -10 -2 -12 6 -8 6 4 17 -1 25 -11 7 -11 13 -15 13 -10 0 5 -8 17 -17
28 -18 20 -18 20 12 4 38 -19 68 -31 78 -28 4 0 10 -6 13 -14 4 -8 10 -15 16
-15 5 0 6 5 3 10 -3 6 -1 10 4 10 6 0 11 -5 11 -10 0 -6 6 -9 13 -8 7 2 11 -7
10 -22 -2 -25 -2 -25 9 -3 9 18 17 22 37 17 14 -3 32 -6 39 -6 6 -1 12 -4 12
-8 0 -3 8 -6 18 -7 9 -1 35 -4 57 -8 22 -3 52 -6 68 -5 15 0 27 -4 27 -10 0
-5 5 -10 11 -10 5 0 8 4 5 8 -3 5 2 9 10 9 8 0 13 -6 10 -14 -5 -13 31 -39 42
-29 3 3 0 6 -7 6 -7 0 -9 4 -6 10 4 6 -1 7 -12 3 -16 -6 -16 -5 -4 10 17 21
29 14 47 -27 7 -17 13 -25 14 -18 0 7 -5 22 -10 33 -7 11 -7 19 -1 19 5 0 11
-5 13 -12 5 -14 45 -21 52 -9 3 4 -6 7 -19 5 -14 -1 -25 2 -25 6 0 13 18 22
24 12 3 -5 20 -7 38 -6 106 11 106 11 112 -9 3 -12 9 -16 17 -11 9 5 10 2 6
-9 -3 -8 0 -18 8 -21 11 -4 12 0 5 17 -4 12 -13 21 -19 19 -6 -1 -11 4 -11 12
0 9 19 15 58 19 31 4 68 10 82 13 20 4 22 3 10 -5 -9 -7 -11 -11 -3 -11 7 0
17 8 22 18 9 14 12 14 20 3 6 -9 10 -10 12 -2 5 14 102 44 141 44 15 0 26 4
25 10 -1 5 4 12 11 14 6 3 12 0 12 -6 0 -6 5 -11 11 -11 5 0 8 4 4 10 -4 7 65
50 81 50 2 0 4 -10 6 -22 2 -13 9 -22 17 -20 9 2 12 -4 8 -19 -4 -16 -3 -19 5
-11 13 13 2 46 -12 37 -6 -3 -10 4 -10 18 0 19 10 29 50 48 28 13 50 28 50 34
0 5 5 3 10 -5 8 -13 11 -13 22 -1 10 10 10 12 0 7 -6 -4 -12 -2 -12 3 0 6 5
11 10 11 6 0 13 1 17 3 3 1 8 -8 10 -21 2 -14 -1 -21 -7 -17 -5 3 -15 -4 -21
-17 -6 -13 -19 -25 -30 -25 -12 -1 -17 3 -13 9 4 7 2 8 -5 4 -17 -11 -3 -26
21 -23 11 2 26 14 33 28 8 13 17 24 22 24 4 0 8 13 8 28 0 29 20 48 41 40 6
-2 15 1 20 8 4 8 3 10 -4 5 -7 -4 -12 -2 -12 3 0 6 5 11 10 11 6 0 16 5 23 10
50 42 62 50 73 46 7 -3 11 0 8 7 -2 7 17 30 42 52 26 22 52 46 58 53 47 55 78
82 86 77 14 -9 12 -25 -2 -23 -7 2 -13 -3 -13 -11 0 -8 6 -15 13 -17 7 -1 8 0
2 3 -5 2 -10 9 -10 14 0 6 4 8 9 4 15 -9 24 15 11 30 -8 10 -8 19 0 34 13 25
26 27 34 6 3 -8 10 -15 16 -15 6 0 4 7 -4 16 -20 20 -20 22 2 42 10 10 11 13
3 7 -8 -5 -4 5 9 22 13 18 31 33 39 33 14 0 14 1 1 10 -14 9 -13 11 9 14 5 0
13 5 18 10 5 5 3 6 -4 2 -7 -4 -13 -2 -13 3 0 6 5 11 11 11 5 0 8 4 4 9 -3 6
4 9 15 8 21 -1 27 -12 10 -20 -6 -3 -5 -4 2 -3 7 2 13 9 13 17 0 8 -6 13 -13
11 -17 -3 -16 0 27 91 57 122 71 154 71 165 0 5 7 13 15 16 20 7 16 -24 -5
-41 -8 -7 -10 -13 -5 -13 6 0 3 -5 -5 -11 -10 -7 -11 -9 -2 -7 8 2 13 7 12 12
-1 5 5 13 13 17 17 10 16 55 -1 51 -15 -3 -15 -2 3 41 8 19 11 37 8 41 -4 3
-1 6 6 6 8 0 10 7 6 20 -3 11 -2 20 3 20 6 0 8 9 5 20 -4 15 0 20 13 21 11 0
14 3 7 6 -14 5 -18 33 -5 33 4 0 7 17 6 37 -2 34 8 52 29 53 4 0 6 -6 5 -12
-2 -7 8 -14 22 -15 24 -2 24 -2 2 5 -13 4 -24 12 -25 17 -1 6 -8 9 -14 9 -22
-3 -14 23 8 29 12 3 18 10 14 16 -3 6 -1 11 5 11 6 0 15 -10 20 -22 5 -14 9
-17 9 -7 1 8 -4 20 -11 27 -9 9 -9 12 2 12 7 0 11 3 8 6 -10 9 -49 -16 -43
-27 4 -5 0 -9 -7 -9 -8 0 -14 9 -14 19 0 11 4 17 8 15 4 -3 8 -1 8 5 0 5 -5
13 -10 16 -6 4 -8 11 -5 16 9 13 25 11 23 -3 -3 -14 40 -20 47 -7 3 4 -6 6
-21 3 -15 -3 -23 -1 -20 5 4 5 -2 14 -11 20 -17 9 -17 11 2 25 11 8 16 16 10
17 -5 0 1 5 15 10 l25 8 -25 -2 c-14 -1 -24 -8 -22 -15 1 -6 -3 -12 -9 -12 -7
0 -9 10 -5 24 3 14 1 28 -4 31 -6 4 -8 11 -5 16 9 13 25 11 23 -3 -2 -7 8 -14
22 -15 l25 -2 -25 8 c-14 5 -20 10 -15 10 6 1 1 9 -10 17 -19 14 -19 16 -2 25
9 6 14 15 11 21 -5 8 -1 9 12 4 14 -5 16 -4 7 5 -13 13 -37 3 -28 -12 4 -5 2
-9 -3 -9 -6 0 -12 7 -16 15 -3 8 -1 15 4 15 6 0 10 5 10 11 0 5 -4 8 -8 5 -4
-2 -9 4 -9 15 -1 11 5 19 13 19 8 0 13 -4 10 -9 -3 -5 7 -17 22 -27 20 -13 24
-13 15 -2 -7 8 -10 18 -6 22 4 4 -1 4 -11 0 -14 -5 -17 -4 -12 4 4 8 -3 16
-21 23 -28 12 -28 12 -5 18 13 3 23 10 22 15 -1 5 4 13 12 18 10 8 10 9 -2 5
-8 -2 -14 -10 -12 -16 1 -6 -8 -11 -20 -10 -13 0 -17 3 -10 6 8 3 10 9 3 16
-8 11 -17 48 -25 107 -2 14 -9 37 -15 52 -10 28 -5 62 8 53 4 -2 8 2 8 10 0
20 -13 19 -22 -2 -6 -15 -9 -13 -16 12 -6 20 -5 32 4 37 9 5 7 8 -4 8 -10 0
-21 16 -29 43 -8 23 -27 67 -42 97 -16 30 -26 61 -23 68 3 7 1 11 -4 7 -12 -7
-43 54 -34 68 3 6 1 7 -5 3 -13 -8 -35 28 -24 39 4 5 1 5 -5 1 -7 -4 -13 -2
-13 3 0 12 0 12 -86 116 -252 305 -588 493 -980 550 -48 7 -297 13 -339 8z"/>
<path d="M3080 2376 c0 -2 8 -10 18 -17 15 -13 16 -12 3 4 -13 16 -21 21 -21
13z"/>
<path d="M3100 2335 c0 -5 9 -23 20 -40 26 -39 26 -25 0 17 -11 18 -20 29 -20
23z"/>
<path d="M3140 2240 c-9 -6 -10 -10 -3 -10 6 0 15 5 18 10 8 12 4 12 -15 0z"/>
<path d="M3170 2171 c0 -7 -5 -9 -12 -5 -7 5 -8 3 -3 -5 5 -9 10 -10 18 -2 6
6 8 14 4 18 -4 3 -7 1 -7 -6z"/>
<path d="M3174 2139 c-3 -6 -1 -16 5 -22 9 -9 10 -7 5 7 -6 15 -4 17 6 11 9
-5 11 -4 6 3 -9 15 -13 15 -22 1z"/>
<path d="M3188 2093 c7 -3 16 -2 19 1 4 3 -2 6 -13 5 -11 0 -14 -3 -6 -6z"/>
<path d="M3197 2063 c-13 -12 -7 -23 11 -22 10 0 12 3 4 6 -6 2 -10 9 -6 14 6
10 0 12 -9 2z"/>
<path d="M3190 2025 c0 -5 5 -17 10 -25 5 -8 10 -10 10 -5 0 6 -5 17 -10 25
-5 8 -10 11 -10 5z"/>
<path d="M3215 2020 c3 -5 8 -10 11 -10 2 0 4 5 4 10 0 6 -5 10 -11 10 -5 0
-7 -4 -4 -10z"/>
<path d="M3235 1829 c-4 -6 -5 -12 -2 -15 2 -3 7 2 10 11 7 17 1 20 -8 4z"/>
<path d="M3251 1804 c0 -11 3 -14 6 -6 3 7 2 16 -1 19 -3 4 -6 -2 -5 -13z"/>
<path d="M3240 1715 c-19 -22 -8 -25 13 -3 9 10 13 18 8 18 -5 0 -14 -7 -21
-15z"/>
<path d="M3230 1583 c0 -6 8 -17 18 -24 16 -13 16 -13 2 6 -8 11 -16 22 -17
24 -2 2 -3 0 -3 -6z"/>
<path d="M3193 1512 c-1 -22 0 -24 9 -8 6 10 6 22 2 26 -5 5 -10 -3 -11 -18z"/>
<path d="M3224 1505 c-10 -8 -14 -15 -9 -15 6 0 3 -5 -5 -11 -10 -7 -11 -9 -2
-7 8 2 13 7 12 12 -1 4 7 14 17 22 10 7 15 14 12 14 -3 0 -14 -7 -25 -15z"/>
<path d="M3230 1459 c0 -5 5 -7 10 -4 6 3 10 8 10 11 0 2 -4 4 -10 4 -5 0 -10
-5 -10 -11z"/>
<path d="M3200 1445 c14 -7 24 -17 22 -21 -2 -5 2 -10 10 -12 9 -2 8 0 -2 7
-8 6 -10 11 -5 11 6 0 1 7 -9 15 -11 8 -25 15 -30 15 -6 -1 0 -7 14 -15z"/>
<path d="M3190 1410 c0 -5 5 -10 11 -10 5 0 7 5 4 10 -3 6 -8 10 -11 10 -2 0
-4 -4 -4 -10z"/>
<path d="M3218 1394 c-4 -3 -14 -7 -25 -8 -25 -4 -26 -44 -1 -57 11 -6 22 -8
26 -5 3 3 0 6 -7 6 -7 0 -9 4 -6 10 3 5 0 7 -7 5 -8 -3 -14 2 -15 13 -1 11 6
18 18 19 11 1 17 -2 14 -7 -3 -5 -2 -11 3 -14 4 -2 8 6 8 20 0 26 0 27 -8 18z"/>
<path d="M3156 1322 c-3 -4 4 -9 15 -9 23 -2 25 3 4 10 -8 4 -16 3 -19 -1z"/>
<path d="M3156 1285 c-3 -8 -1 -15 4 -15 6 0 10 7 10 15 0 8 -2 15 -4 15 -2 0
-6 -7 -10 -15z"/>
<path d="M3190 1290 c0 -5 5 -10 11 -10 5 0 7 5 4 10 -3 6 -8 10 -11 10 -2 0
-4 -4 -4 -10z"/>
<path d="M3170 1249 c-7 -11 -9 -23 -6 -27 3 -3 6 0 6 7 0 7 4 9 10 6 6 -4 7
1 3 11 -5 13 -3 15 7 9 9 -5 11 -4 6 3 -10 16 -14 15 -26 -9z"/>
<path d="M3156 1199 c2 -4 -3 -10 -12 -13 -8 -3 -13 -9 -10 -14 2 -4 -5 -14
-16 -21 -18 -11 -20 -11 -15 3 4 9 2 16 -3 16 -11 0 -14 -23 -4 -33 9 -8 55
23 49 33 -3 4 2 10 9 13 8 3 17 3 19 -1 2 -4 2 -2 1 5 -2 6 2 14 9 16 7 3 2 4
-10 4 -12 -1 -20 -4 -17 -8z"/>
<path d="M3075 1120 c-8 -13 4 -32 16 -25 5 4 9 -3 9 -14 0 -12 -6 -20 -12
-18 -8 1 -12 -7 -11 -21 2 -14 -1 -21 -8 -17 -6 4 -13 -3 -16 -15 -6 -22 -7
-22 -20 -5 -7 11 -13 15 -13 9 0 -5 7 -17 15 -28 13 -18 14 -17 21 7 3 15 11
25 18 24 6 -1 10 8 9 20 -2 14 2 22 10 20 7 -1 12 8 12 23 0 16 -5 24 -14 22
-8 -2 -11 3 -8 13 7 17 2 20 -8 5z"/>
<path d="M3116 1122 c-2 -4 0 -14 6 -22 8 -12 9 -11 4 4 -5 14 -2 17 9 12 9
-3 13 -2 10 4 -7 12 -22 13 -29 2z"/>
<path d="M3055 1080 c-3 -5 -1 -10 4 -10 6 0 11 5 11 10 0 6 -2 10 -4 10 -3 0
-8 -4 -11 -10z"/>
<path d="M3036 1045 c-3 -8 -1 -15 4 -15 6 0 10 7 10 15 0 8 -2 15 -4 15 -2 0
-6 -7 -10 -15z"/>
<path d="M3106 1033 c-6 -14 -5 -15 5 -6 7 7 10 15 7 18 -3 3 -9 -2 -12 -12z"/>
<path d="M3079 993 c-13 -16 -12 -17 4 -4 16 13 21 21 13 21 -2 0 -10 -8 -17
-17z"/>
<path d="M3055 959 c-4 -6 -4 -13 -1 -16 3 -4 6 -1 6 6 0 7 5 9 10 6 6 -3 10
-1 10 4 0 14 -17 14 -25 0z"/>
<path d="M3033 932 c0 -12 5 -22 9 -22 11 0 10 12 -2 30 -7 12 -9 10 -7 -8z"/>
<path d="M2998 923 c7 -3 16 -2 19 1 4 3 -2 6 -13 5 -11 0 -14 -3 -6 -6z"/>
<path d="M2976 902 c-2 -4 4 -18 15 -31 10 -13 19 -20 19 -15 0 4 -8 16 -17
27 -17 18 -17 19 2 16 11 -2 23 -11 27 -19 6 -11 7 -10 5 4 -2 19 -41 33 -51
18z"/>
<path d="M2950 870 c6 -11 16 -17 22 -14 8 5 9 1 5 -10 -4 -10 -3 -15 3 -11 6
3 10 1 10 -6 0 -7 3 -10 6 -7 9 10 -16 49 -27 43 -5 -4 -9 1 -9 9 0 9 -5 16
-10 16 -7 0 -7 -7 0 -20z"/>
<path d="M2930 846 c0 -2 7 -7 16 -10 8 -3 12 -2 9 4 -6 10 -25 14 -25 6z"/>
<path d="M2910 820 c0 -5 7 -6 17 -3 12 5 14 3 8 -7 -5 -9 -4 -11 4 -6 6 4 9
12 6 17 -8 12 -35 12 -35 -1z"/>
<path d="M2950 789 c0 -5 -5 -7 -12 -3 -7 4 -8 3 -4 -4 4 -6 13 -9 21 -6 8 4
12 10 9 15 -7 12 -14 11 -14 -2z"/>
<path d="M2870 780 c0 -5 5 -10 10 -10 6 0 10 5 10 10 0 6 -4 10 -10 10 -5 0
-10 -4 -10 -10z"/>
<path d="M2900 766 c0 -2 9 -6 20 -9 11 -3 18 -1 14 4 -5 9 -34 13 -34 5z"/>
<path d="M2894 735 c-4 -8 -9 -13 -13 -11 -4 3 -8 -5 -8 -17 -2 -20 -1 -19 15
4 9 14 23 24 30 22 18 -7 15 4 -3 11 -9 3 -18 -1 -21 -9z"/>
<path d="M2814 716 c5 -13 2 -17 -9 -13 -8 4 -16 3 -19 -1 -3 -4 4 -8 14 -9
25 -2 32 9 18 27 -8 12 -9 11 -4 -4z"/>
<path d="M2820 680 c-18 -12 -2 -12 25 0 13 6 15 9 5 9 -8 0 -22 -4 -30 -9z"/>
<path d="M2760 670 c-9 -6 -10 -10 -3 -10 6 0 15 5 18 10 8 12 4 12 -15 0z"/>
<path d="M2790 675 c0 -5 5 -17 10 -25 5 -8 10 -10 10 -5 0 6 -5 17 -10 25 -5
8 -10 11 -10 5z"/>
<path d="M2730 646 c0 -2 7 -7 16 -10 8 -3 12 -2 9 4 -6 10 -25 14 -25 6z"/>
<path d="M2770 640 c0 -5 5 -10 10 -10 6 0 10 5 10 10 0 6 -4 10 -10 10 -5 0
-10 -4 -10 -10z"/>
<path d="M2720 622 c8 -4 16 -15 18 -26 2 -11 -1 -15 -7 -11 -6 3 -16 -4 -22
-17 -6 -13 -19 -25 -30 -25 -12 -1 -17 3 -13 9 4 7 2 8 -5 4 -6 -4 -9 -12 -6
-17 8 -12 48 -5 53 10 3 9 8 9 20 -1 14 -10 15 -10 5 2 -7 8 -13 18 -13 22 0
4 6 7 13 6 7 -2 12 7 12 22 0 17 -6 26 -20 27 -15 2 -16 1 -5 -5z"/>
<path d="M2787 606 c-4 -10 -1 -13 8 -9 8 3 12 9 9 14 -7 12 -11 11 -17 -5z"/>
<path d="M2690 600 c0 -5 5 -10 10 -10 6 0 10 5 10 10 0 6 -4 10 -10 10 -5 0
-10 -4 -10 -10z"/>
<path d="M2756 575 c-9 -26 -7 -32 5 -12 6 10 9 21 6 23 -2 3 -7 -2 -11 -11z"/>
<path d="M2613 522 c1 -23 37 -54 37 -32 0 5 -7 10 -16 10 -8 0 -13 4 -10 8 2
4 1 14 -4 22 -7 11 -9 9 -7 -8z"/>
<path d="M2642 524 c10 -10 20 -16 22 -13 3 3 -5 11 -17 18 -21 13 -21 12 -5
-5z"/>
<path d="M2591 514 c0 -11 3 -14 6 -6 3 7 2 16 -1 19 -3 4 -6 -2 -5 -13z"/>
<path d="M2570 480 c0 -5 5 -10 10 -10 6 0 10 5 10 10 0 6 -4 10 -10 10 -5 0
-10 -4 -10 -10z"/>
<path d="M2615 460 c-3 -6 1 -7 9 -4 18 7 21 14 7 14 -6 0 -13 -4 -16 -10z"/>
<path d="M2521 444 c0 -11 3 -14 6 -6 3 7 2 16 -1 19 -3 4 -6 -2 -5 -13z"/>
<path d="M2550 450 c0 -5 5 -10 10 -10 6 0 10 5 10 10 0 6 -4 10 -10 10 -5 0
-10 -4 -10 -10z"/>
<path d="M2591 444 c0 -11 3 -14 6 -6 3 7 2 16 -1 19 -3 4 -6 -2 -5 -13z"/>
<path d="M2533 412 c-3 -7 -3 -16 1 -19 3 -4 6 1 6 10 0 10 6 14 14 11 8 -3
16 -2 19 3 3 5 -4 9 -15 9 -11 0 -23 -6 -25 -14z"/>
<path d="M2390 395 c0 -8 2 -15 4 -15 2 0 6 7 10 15 3 8 1 15 -4 15 -6 0 -10
-7 -10 -15z"/>
<path d="M988 383 c7 -3 16 -2 19 1 4 3 -2 6 -13 5 -11 0 -14 -3 -6 -6z"/>
<path d="M2370 360 c0 -5 5 -10 10 -10 6 0 10 5 10 10 0 6 -4 10 -10 10 -5 0
-10 -4 -10 -10z"/>
<path d="M2400 366 c0 -13 37 -24 51 -15 12 9 12 10 -1 6 -8 -2 -23 0 -32 5
-10 5 -18 6 -18 4z"/>
<path d="M2276 339 c3 -5 9 -7 14 -4 4 3 11 0 13 -5 3 -6 4 -5 3 1 -1 7 -10
13 -19 15 -9 1 -15 -2 -11 -7z"/>
<path d="M2390 329 c0 -5 5 -7 10 -4 6 3 10 8 10 11 0 2 -4 4 -10 4 -5 0 -10
-5 -10 -11z"/>
<path d="M2267 319 c7 -7 15 -10 18 -7 3 3 -2 9 -12 12 -14 6 -15 5 -6 -5z"/>
<path d="M2320 320 c0 -5 5 -10 11 -10 5 0 7 5 4 10 -3 6 -8 10 -11 10 -2 0
-4 -4 -4 -10z"/>
<path d="M1140 306 c0 -2 11 -6 25 -8 13 -3 22 -1 19 3 -5 9 -44 13 -44 5z"/>
<path d="M2164 299 c-4 -7 -3 -9 4 -5 7 4 10 -1 9 -14 -1 -21 -12 -27 -20 -10
-3 6 -4 5 -3 -2 4 -22 29 -15 32 9 4 25 -11 39 -22 22z"/>
<path d="M2209 287 c-8 -14 -8 -22 1 -31 8 -8 9 -6 4 8 -5 13 -4 17 4 12 7 -4
10 -2 7 6 -4 9 2 14 15 14 13 0 19 -5 16 -13 -3 -7 -1 -13 5 -13 6 0 9 8 7 17
-4 24 -47 24 -59 0z"/>
<path d="M2293 295 c-3 -9 -3 -19 1 -22 3 -4 6 1 6 11 0 10 5 14 12 10 7 -4 8
-3 4 4 -10 16 -15 15 -23 -3z"/>
<path d="M2116 275 c4 -8 8 -15 10 -15 2 0 4 7 4 15 0 8 -4 15 -10 15 -5 0 -7
-7 -4 -15z"/>
<path d="M2057 274 c-10 -11 3 -24 23 -24 23 0 35 16 19 26 -8 4 -9 3 -5 -4 5
-8 -1 -12 -14 -12 -12 0 -18 5 -15 10 7 11 2 13 -8 4z"/>
<path d="M1295 261 c-6 -11 13 -26 22 -17 4 3 1 6 -6 6 -7 0 -9 5 -6 10 3 6 4
10 1 10 -3 0 -7 -4 -11 -9z"/>
<path d="M1335 260 c-3 -5 -1 -10 4 -10 6 0 11 5 11 10 0 6 -2 10 -4 10 -3 0
-8 -4 -11 -10z"/>
<path d="M1393 247 c0 -9 4 -14 8 -11 4 2 9 -1 11 -8 2 -6 12 -12 21 -14 9 -1
14 2 11 8 -3 5 -8 7 -11 4 -3 -3 -13 4 -23 16 -13 17 -17 18 -17 5z"/>
<path d="M1447 239 c7 -7 15 -10 18 -7 3 3 -2 9 -12 12 -14 6 -15 5 -6 -5z"/>
<path d="M1920 235 c-11 -13 -15 -13 -21 -3 -6 9 -9 9 -9 1 0 -21 14 -22 39
-2 13 10 19 19 13 19 -5 0 -15 -7 -22 -15z"/>
<path d="M2011 245 c4 -3 19 -8 35 -11 16 -3 26 -2 23 1 -4 3 -19 8 -35 11
-16 3 -26 2 -23 -1z"/>
<path d="M2115 241 c3 -2 -3 -10 -13 -18 -15 -12 -14 -13 8 -1 14 7 28 11 33
10 4 -1 7 2 7 7 0 6 -9 9 -20 8 -10 -1 -17 -3 -15 -6z"/>
<path d="M1500 229 c0 -5 -4 -8 -8 -5 -4 2 -14 0 -22 -5 -11 -7 -9 -8 9 -6 21
3 45 27 27 27 -3 0 -6 -5 -6 -11z"/>
<path d="M1755 229 c-4 -6 -5 -12 -2 -15 2 -3 7 2 10 11 7 17 1 20 -8 4z"/>
<path d="M1800 231 c0 -7 -5 -9 -10 -6 -13 8 -24 -20 -16 -41 5 -13 9 -13 30
3 13 10 22 20 20 22 -2 2 -13 -4 -24 -14 -19 -18 -20 -17 -20 4 0 12 4 20 9
16 11 -6 26 13 17 22 -3 4 -6 1 -6 -6z"/>
<path d="M2002 227 c10 -8 14 -18 10 -22 -4 -5 -1 -5 6 -1 17 10 15 14 -10 26
-21 10 -21 10 -6 -3z"/>
<path d="M1511 207 c-13 -21 -12 -21 5 -5 10 10 16 20 13 22 -3 3 -11 -5 -18
-17z"/>
<path d="M1936 222 c-2 -4 0 -14 6 -22 8 -12 9 -12 4 3 -4 12 0 17 16 17 18 0
19 -2 7 -17 -12 -16 -12 -17 2 -6 9 7 20 9 25 5 4 -4 2 1 -5 11 -14 18 -46 23
-55 9z"/>
<path d="M1537 203 c-3 -5 8 -8 25 -9 20 -1 25 2 16 7 -16 11 -35 11 -41 2z"/>
<path d="M1700 200 c-18 -12 -2 -12 25 0 13 6 15 9 5 9 -8 0 -22 -4 -30 -9z"/>
<path d="M1910 189 c0 -5 5 -7 10 -4 6 3 10 8 10 11 0 2 -4 4 -10 4 -5 0 -10
-5 -10 -11z"/>
</g>
</svg>
