<svg width="1248" height="216" viewBox="0 0 1248 216" fill="none" xmlns="http://www.w3.org/2000/svg">
<path   d="M493.441 0.0599973H138.527H131.839H0C0 0.0599973 25.03 112.865 88.7808 111.426C118.984 110.767 155.04 92.066 190.051 102.855C233.735 116.401 272.25 216 332.5 216C402.521 216 441.657 67.7309 527.877 117.9C579.505 147.929 603.072 60.5382 665.203 60.5382C716.308 60.5382 734.702 150.506 801.535 150.506C869.728 150.506 870.355 82.6556 931.859 82.6556C995.139 82.6556 991.201 216 1041 216C1087.09 216 1086.32 83.7945 1143.39 83.7945C1225.16 83.7945 1248 0 1248 0H493.441V0.0599973Z" fill="#FFFFF9"/>
</svg>
