<svg viewBox="0 0 280 68" fill="none" xmlns="http://www.w3.org/2000/svg">
<path d="M111.189 0.0186597H31.7872H30.2908H0.795654C0.795654 0.0186597 6.39541 35.102 20.6578 34.6546C27.415 34.4495 35.4814 28.6334 43.3141 31.9888C53.0873 36.2018 61.7039 67.1779 75.1831 67.1779C90.8484 67.1779 99.6039 21.0649 118.893 36.6679C130.443 46.0073 135.716 18.8279 149.616 18.8279C161.049 18.8279 165.164 46.8088 180.116 46.8088C195.373 46.8088 195.513 25.7067 209.273 25.7067C223.43 25.7067 222.549 67.1779 233.69 67.1779C244.001 67.1779 243.83 26.0608 256.596 26.0608C274.891 26.0608 280 0 280 0H111.189V0.0186597Z" fill="#FFFFF9"/>
</svg>
