<svg aria-hidden="true" style="position:absolute;width:0;height:0;overflow:hidden" xmlns="http://www.w3.org/2000/svg">
  <defs>
    <symbol id="activitypub" viewBox="0 0 32 32">
      <path d="M14.453 10.708 1.084 18.414v3.095l10.677-6.159v12.348l2.692 1.516V10.707zm2.661 0v3.095l10.708 6.159-10.708 6.19v3.064l13.369-7.706v-3.095zm0 6.19v6.159l5.354-3.095zm-8.015 3.063-5.354 3.095 5.354 3.095v-6.19z"/>
    </symbol>

    <symbol id="donut" viewBox="0 0 32 32">
      <path d="M16 1C7.73 1 1 7.73 1 16s6.73 15 15 15c6.94 0 12.79-4.74 14.5-11.14.12-.47.23-.95.31-1.44.12-.79.19-1.59.19-2.42 0-8.27-6.73-15-15-15zm9 13h1c.55 0 1 .45 1 1s-.45 1-1 1h-1c-.55 0-1-.45-1-1s.45-1 1-1zm-6-7h2c.55 0 1 .45 1 1s-.45 1-1 1h-2c-.55 0-1-.45-1-1s.45-1 1-1zm-3 5c2.21 0 4 1.79 4 4s-1.79 4-4 4a3.999 3.999 0 0 1-3.17-6.44C13.56 12.61 14.71 12 16 12zm-6-5h2c.55 0 1 .45 1 1s-.45 1-1 1h-2c-.55 0-1-.45-1-1s.45-1 1-1zm-5 6c0-.55.45-1 1-1h1c.55 0 1 .45 1 1s-.45 1-1 1H6c-.55 0-1-.45-1-1zm2 6h1c.55 0 1 .45 1 1s-.45 1-1 1H7c-.55 0-1-.45-1-1s.45-1 1-1zm9 10c-4 0-7.58-1.81-9.97-4.66 1.07.39 2.38.66 3.97.66 2.23 0 3.67.61 5.06 1.2 1.16.49 2.28.97 3.64.97.48 0 .99-.06 1.54-.2 2.16-.54 3.52-2.03 4.84-3.48.93-1.02 1.82-2.01 3-2.7C26.18 25.59 21.48 29 16 29z"/>
    </symbol>

    <symbol id="finance" viewBox="0 0 32 32">
      <path d="m13.133 5.707.06-.002c.203 0 .388.077.527.203l-.001-.001c.148.132.24.324.24.537v.01-.001 5.88a.773.773 0 0 1-.595.746l-.005.001c-1.974.53-3.404 2.304-3.404 4.411a4.56 4.56 0 0 0 9.067.694l.003-.025a.734.734 0 0 1 .729-.653h5.879a.69.69 0 0 1 .512.226v.001a.718.718 0 0 1 .201.499l-.001.036v-.002c-.413 6.21-5.551 11.091-11.829 11.091-6.546 0-11.853-5.307-11.853-11.853 0-6.054 4.538-11.048 10.398-11.765l.057-.006z"/>
      <path d="m18 3.12-.507.093v6.12c.003.387.29.706.663.759l.004.001a4.517 4.517 0 0 1 3.837 3.789l.003.025c.048.37.361.653.741.653h5.83a.741.741 0 0 0 .548-.24v-.001a.755.755 0 0 0 .201-.515l-.001-.047v.002C28.928 7.741 24.1 2.969 18.094 2.667l-.028-.001c-.2 0 .12.453-.067.453z"/>
      <path d="M17.493 2.933V2.92c0-.14.113-.253.253-.253h.506c5.867 0 10.671 4.549 11.079 10.311l.002.035v.707a.76.76 0 0 1-.201.561v-.001a.745.745 0 0 1-.549.24h-3.651v-.008c0-4.954-3.043-9.197-7.361-10.963l-.079-.029zM22.76 17.48c-.004 5.903-4.322 10.797-9.972 11.698l-.068.009a11.41 11.41 0 0 0 1.811.147h.002c6.275-.008 11.409-4.886 11.825-11.057l.002-.036v-.009a.782.782 0 0 0-.201-.525l.001.001a.73.73 0 0 0-.517-.213h-.003z"/>
    </symbol>

<symbol id="direction" viewBox="0 0 32 32">
      <path stroke-linejoin="round" stroke-linecap="round" stroke-width="2" d="M31 16 11 1v9.667L1 4v24l10-6.667V31l20-15z"/>
    </symbol>

        <symbol id="arrow" viewBox="0 0 32 32">
      <path d="M1.793 25.319c.316.176.703.246 1.125.176 3.587-.598 7.138-1.231 10.69-1.864.246 1.829.457 3.657.668 5.486.141 1.266 1.793 2.356 2.813 1.16 4.36-4.993 9.248-9.424 14.136-13.925.844-.809.598-2.251-.352-2.848-5.31-3.059-10.268-6.576-14.347-11.182-1.055-1.16-2.848-.176-2.919 1.196-.105 2.18-.246 4.325-.352 6.505-1.829-.141-3.692-.246-5.521-.387-2.11-.141-4.571-.668-6.576.105-.563.211-.738.985-.176 1.336 1.864 1.125 4.36 1.055 6.47 1.301 2.426.281 4.853.527 7.279.809.879.105 1.442-.774 1.547-1.512.141-1.407.281-2.813.422-4.255 3.095 3.024 6.611 5.626 10.303 7.947-3.411 3.13-6.752 6.4-9.846 9.846-.141-1.16-.281-2.321-.387-3.516-.141-1.16-.949-1.793-2.11-1.618L3.9 21.872c-.211-1.969-.703-3.903-.985-5.873-.211-1.582-2.462-.985-2.602.352-.281 2.497.07 4.888.281 7.385 0 .879.563 1.407 1.196 1.582z"/>
    </symbol>

    <symbol id="share" viewBox="0 0 32 32">
      <path d="M21.09 24.971v-6.303H10.183C4.559 18.668 0 23.223 0 28.849V18.183C0 12.559 4.559 8.001 10.183 8.001H21.09V3.152L32 14.062l-10.91 10.91z"/>
    </symbol>

    <symbol id="circle" viewBox="0 0 32 32">
      <path d="M16 .5C24.563.5 31.5 7.438 31.5 16S24.562 31.5 16 31.5.5 24.562.5 16 7.438.5 16 .5zm-1.806 8.975L18.913 14H7.501c-.831 0-1.5.669-1.5 1.5v1c0 .831.669 1.5 1.5 1.5h11.412l-4.719 4.525a1.502 1.502 0 0 0-.025 2.144l.688.681a1.495 1.495 0 0 0 2.119 0l8.294-8.287a1.495 1.495 0 0 0 0-2.119l-8.294-8.3a1.493 1.493 0 0 0-2.119 0l-.688.681a1.51 1.51 0 0 0 .025 2.15z"/>
    </symbol>


<symbol id="energy" viewBox="0 0 32 32">
      <path stroke-linejoin="round" stroke-linecap="round" stroke-width="1.92" d="m16 1.875 2.851 3.488 4.211-1.597.726 4.445 4.445.726-1.597 4.211 3.488 2.851-3.488 2.851 1.597 4.211-4.445.726-.726 4.445-4.211-1.597L16 30.123l-2.851-3.488-4.211 1.597-.726-4.445-4.445-.726 1.597-4.211-3.488-2.851 3.488-2.851-1.597-4.211 4.445-.726.726-4.445 4.211 1.597L16 1.875z"/>
      <path stroke-linejoin="round" stroke-linecap="round" stroke-width="1.92" d="M23.146 16a7.146 7.146 0 1 1-14.292 0 7.146 7.146 0 0 1 14.292 0z"/>
      <path stroke-linejoin="round" stroke-linecap="round" stroke-width="1.92" d="M18.714 12.592c.508.405.917.912 1.201 1.491l.011.026c.272.553.431 1.203.432 1.891"/>
    </symbol>

    <symbol id="right-arrow-in-square-button-outline-svgrepo-com-1" viewBox="0 0 32 32">
      <path d="M6.571 28.052a.676.676 0 0 1-.57-1.043l7.087-11.055L6.003 4.992a.677.677 0 0 1 .908-.955l19.702 11.375a.677.677 0 0 1 0 1.174L6.911 27.961a.678.678 0 0 1-.338.091zM8.664 6.616l5.797 8.969c.144.223.145.51.001.733l-5.819 9.077 16.274-9.396L8.663 6.615z"/>
      <path d="M30.51 32H1.491c-.822 0-1.49-.669-1.49-1.49V1.491c0-.822.669-1.49 1.49-1.49H30.51c.822 0 1.49.669 1.49 1.49V30.51c0 .822-.669 1.491-1.49 1.491zM1.49 1.355a.135.135 0 0 0-.135.135v29.019c0 .075.061.136.135.136h29.019a.136.136 0 0 0 .136-.136V1.49a.135.135 0 0 0-.136-.135H1.49z"/>
    </symbol>

    <symbol id="arrow-right-triangle-direction-navigation-svgrepo-com" viewBox="0 0 32 32">
      <path d="M9.6 4.469v23.063l11.531-11.531L9.6 4.47zm1.6 3.862L18.869 16 11.2 23.669V8.331z"/>
    </symbol>
   
    <symbol id="cpu-svgrepo-com" viewBox="0 0 32 32">
      <path d="M12.129 4c.641 0 1.161.52 1.161 1.161v2.54a12.02 12.02 0 0 1 1.548-.249V5.161a1.161 1.161 0 0 1 2.322 0v2.291c.52.05 1.037.133 1.548.249v-2.54a1.161 1.161 0 0 1 2.322 0v3.497a7.372 7.372 0 0 1 2.31 2.31h3.497a1.161 1.161 0 0 1 0 2.322h-2.54c.117.512.2 1.029.249 1.548h2.291a1.161 1.161 0 0 1 0 2.322h-2.291c-.05.52-.133 1.037-.249 1.548h2.54a1.161 1.161 0 0 1 0 2.322H23.34a7.383 7.383 0 0 1-2.31 2.31v3.497a1.161 1.161 0 0 1-2.322 0v-2.54c-.512.116-1.029.199-1.548.249v2.291a1.161 1.161 0 0 1-2.322 0v-2.291c-.52-.05-1.037-.133-1.548-.249v2.54a1.161 1.161 0 0 1-2.322 0V23.34a7.383 7.383 0 0 1-2.31-2.31H5.161a1.161 1.161 0 0 1 0-2.322h2.54a12.02 12.02 0 0 1-.249-1.548H5.161a1.161 1.161 0 0 1 0-2.322h2.291c.05-.52.133-1.037.249-1.548h-2.54a1.161 1.161 0 0 1 0-2.322h3.497a7.383 7.383 0 0 1 2.31-2.31V5.161c0-.641.52-1.161 1.161-1.161zm3.074 10.044a3.485 3.485 0 0 1 1.593 0 1.556 1.556 0 0 1 1.159 1.159 3.485 3.485 0 0 1 0 1.593 1.556 1.556 0 0 1-1.159 1.159 3.485 3.485 0 0 1-1.593 0 1.556 1.556 0 0 1-1.159-1.159 3.485 3.485 0 0 1 0-1.593 1.556 1.556 0 0 1 1.159-1.159zm2.018-1.809a5.357 5.357 0 0 0-2.442 0 3.414 3.414 0 0 0-2.544 2.544 5.357 5.357 0 0 0 0 2.442 3.414 3.414 0 0 0 2.544 2.544 5.357 5.357 0 0 0 2.442 0 3.414 3.414 0 0 0 2.544-2.544 5.357 5.357 0 0 0 0-2.442 3.414 3.414 0 0 0-2.544-2.544z"/>
    </symbol>

    <symbol id="arrow-download-upload-svgrepo-com" viewBox="0 0 32 32">
      <path d="M5.873 15.297c3.481 3.024 6.33 6.611 9.424 10.022.633.703 1.793.457 2.251-.281a42.498 42.498 0 0 1 8.404-10.163c.949-.844.141-2.251-.949-2.321-1.477-.105-2.989-.176-4.466-.246.07-1.793.176-3.587.246-5.38.105-1.899.598-4.29-.141-6.119-.176-.457-.774-.598-1.055-.141-.985 1.688-.809 4.079-.985 5.978-.211 2.286-.422 4.571-.598 6.822-.07.703.633 1.196 1.266 1.266.879.07 1.758.176 2.637.246-2.145 2.11-4.044 4.466-5.732 6.963-2.04-2.286-4.044-4.571-6.259-6.646.738-.105 1.477-.176 2.215-.281.633-.07 1.407-.527 1.301-1.301-.457-3.587-.879-7.174-1.336-10.796 1.371-.035 2.708-.211 4.114-.387.985-.141.985-1.864 0-2.004-1.864-.281-3.622-.422-5.521-.281-.387.035-.668.176-.879.387-.352.176-.598.563-.527 1.125.457 3.622.949 7.209 1.407 10.831-1.266.141-2.532.316-3.798.457-1.125.105-1.969 1.407-1.02 2.251z"/>
      <path d="M28.8 22.154c-1.758 0-3.516 0-5.275.07-1.829.07-1.829 2.743 0 2.848 1.231.07 2.462.07 3.692.105-.07 1.125-.105 2.251-.141 3.411-7.49-.246-14.945-.035-22.435.422.07-1.512.106-3.024.141-4.501 1.688.281 3.376.422 5.134.422.949 0 1.266-1.582.246-1.758-2.075-.316-4.114-.809-6.084-1.618-1.02-.422-2.075.07-2.145 1.231-.176 2.567-.07 5.169-.105 7.736 0 .703.633 1.442 1.407 1.407 8.404-.738 16.914-.703 25.319-.246.844.035 1.477-.738 1.512-1.512.105-2.145.211-4.29.281-6.435 0-.879-.738-1.582-1.547-1.582z"/>
    </symbol>

    <symbol id="right-arrow-in-square-button-outline-svgrepo-com" viewBox="0 0 32 32">
      <path d="M6.571 28.052a.676.676 0 0 1-.57-1.043l7.087-11.055L6.003 4.992a.677.677 0 0 1 .908-.955l19.702 11.375a.677.677 0 0 1 0 1.174L6.911 27.961a.678.678 0 0 1-.338.091zM8.664 6.616l5.797 8.969c.144.223.145.51.001.733l-5.819 9.077 16.274-9.396L8.663 6.615z"/>
      <path d="M30.51 32H1.491c-.822 0-1.49-.669-1.49-1.49V1.491c0-.822.669-1.49 1.49-1.49H30.51c.822 0 1.49.669 1.49 1.49V30.51c0 .822-.669 1.491-1.49 1.491zM1.49 1.355a.135.135 0 0 0-.135.135v29.019c0 .075.061.136.135.136h29.019a.136.136 0 0 0 .136-.136V1.49a.135.135 0 0 0-.136-.135H1.49z"/>
    </symbol>
    
    <symbol id="activity" viewBox="0 0 32 32">
      <path d="M31.402 17.231c-2.004-1.231-3.798-2.848-5.38-4.607-1.266-1.442-3.481.738-2.11 2.11.774.774 1.618 1.407 2.497 2.004-1.934.141-3.974.281-5.732-.035-1.125-3.903-1.301-8.053-1.512-12.062-.105-1.723-2.567-2.18-3.059-.422-1.407 4.888-2.215 9.881-3.27 14.84-.492-2.637-.949-5.275-1.16-7.982-.105-1.16-1.688-1.793-2.356-.633-.668 1.231-1.301 2.462-1.934 3.692-.387.809-1.231 3.376-2.04 3.763-1.196.563-3.376.211-4.782.387-.703.105-.598 1.16 0 1.336 1.547.422 4.536 1.02 5.978.281.949-.457 1.512-1.899 1.969-2.743.352-.598.668-1.231.985-1.829.387 3.833.985 7.666 1.653 11.429.281 1.618 2.673 1.407 3.095 0 1.16-4.009 1.934-8.123 2.708-12.237.141 1.512.352 3.13.985 4.114.774 1.196 2.04 1.196 3.411 1.301a56.96 56.96 0 0 0 4.255.141c-.809.633-1.512 1.336-2.04 2.215-.668 1.09.774 1.969 1.653 1.266 2.004-1.547 4.114-2.884 6.189-4.325.703-.492.809-1.512 0-2.004z"/>
    </symbol>
  </defs>
</svg>
